<svg xmlns="http://www.w3.org/2000/svg" viewBox="0 0 500 500">
  <defs>
    <filter id="drop-shadow-filter-0" x="-500%" y="-500%" width="1000%" height="1000%">
      <feGaussianBlur in="SourceAlpha" stdDeviation="0"/>
      <feOffset dx="2" dy="4"/>
      <feComponentTransfer result="offsetblur">
        <feFuncA id="spread-ctrl" type="linear" slope="1"/>
      </feComponentTransfer>
      <feFlood flood-color="rgba(0,0,0,0.3)"/>
      <feComposite in2="offsetblur" operator="in"/>
      <feMerge>
        <feMergeNode/>
        <feMergeNode in="SourceGraphic"/>
      </feMerge>
    </filter>
    <radialGradient gradientUnits="userSpaceOnUse" cx="231.956" cy="200.524" r="156.869" id="gradient-1" spreadMethod="pad" gradientTransform="matrix(1, 0, 0, 1, 3.118946, 1.247579)">
      <stop offset="0" style="stop-color: rgba(0, 0, 0, 1)"/>
      <stop offset="1" style="stop-color: rgba(0, 0, 0, 1)"/>
    </radialGradient>
    <linearGradient gradientUnits="userSpaceOnUse" x1="210.711" y1="265.32" x2="210.711" y2="278.336" id="gradient-2" gradientTransform="matrix(0.065268, -0.997868, 1.124938, 0.07358, -99.443061, 461.744352)">
      <stop offset="0" style=""/>
      <stop offset="1" style="stop-color: #758d29"/>
    </linearGradient>
    <filter id="drop-shadow-filter-1" x="-500%" y="-500%" width="1000%" height="1000%">
      <feGaussianBlur in="SourceAlpha" stdDeviation="4"/>
      <feOffset dx="-15" dy="4"/>
      <feComponentTransfer result="offsetblur">
        <feFuncA id="spread-ctrl" type="linear" slope="1.24"/>
      </feComponentTransfer>
      <feFlood flood-color="rgba(0,0,0,0.3)"/>
      <feComposite in2="offsetblur" operator="in"/>
      <feMerge>
        <feMergeNode/>
        <feMergeNode in="SourceGraphic"/>
      </feMerge>
    </filter>
  </defs>
  <circle style="fill: rgb(193, 2, 2);" cx="214.881" cy="239.525" r="7.537" id="lower-red-hold"/>
  <path xmlns="http://www.w3.org/2000/svg" style="stroke: rgba(0, 0, 0, 0); fill: rgb(193, 2, 2);" d="M 218.453 201.468 C 210.838 197.798 214.623 200.144 195.967 197.938 C 185.729 196.727 193.178 217.981 215.587 221.412 C 219.945 222.08 227.749 217.693 230.783 214.485" id="upper-red-hold"/>
  <path d="M 367 335.244 L 374.745 341.294 L 371.787 351.084 L 362.213 351.084 L 359.255 341.294 Z" style="fill: rgb(21, 183, 12);" transform="matrix(-0.365942, 0.930638, -0.930638, -0.365942, 693.480135, 83.426974)" id="bottom-green-hold"/>
  <rect x="183.068" y="174.028" width="18.714" height="14.97" style="fill: rgb(229, 112, 23);" id="lower-orange-hold"/>
  <ellipse style="fill: rgb(66, 230, 245);" cx="238.897" cy="278.823" rx="10.916" ry="3.743" id="lower-blue-hold"/>
  <path d="M 305 230 m -8.688 0 a 8.688 8.867 0 1 0 17.376 0 a 8.688 8.867 0 1 0 -17.376 0 Z M 305 230 m -5.213 0 a 5.213 5.32 0 0 1 10.426 0 a 5.213 5.32 0 0 1 -10.426 0 Z" style="fill: rgb(217, 33, 208);" transform="matrix(-0.358979, 0.933346, -0.933346, -0.358979, 500.196846, -53.094262)" id="purple-hold"/>
  <path style="fill: rgb(66, 230, 245);" transform="matrix(0.623789, 0, 0, 0.623789, -87.032654, -56.151733)" d="M 353 271 A 21.024 21.024 0 1 1 344 230.976 L 344 252 Z" id="top-blue-hold"/>
  <polygon style="fill: rgb(229, 112, 23); stroke: rgba(0, 0, 0, 0);" points="135.66 124.123 153.126 136.599 163.107 106.033 156.245 98.548" id="top-orange-hold"/>
  <path style="paint-order: stroke; stroke: url(#gradient-1); fill: rgb(107, 99, 79); filter: url(#drop-shadow-filter-1);" d="M 78.205 86.812 C 176.754 95.282 195.015 181.108 254.573 338.268 L 391.943 348.163 C 214.21 54.766 392.58 347.824 213.246 55.381 L 78.205 86.812 Z" id="wall"/>
  <path style="stroke: rgb(0, 0, 0); fill: rgba(216, 216, 216, 0);" d="M 289.291 437.718 C 260.865 426.472 218.86 299.185 218.86 299.185" id="rope"/>
  <ellipse style="fill: rgb(216, 216, 216); stroke-width: 2px; filter: url(#drop-shadow-filter-0);" cx="213.912" cy="295.402" rx="10.769" ry="23.574" id="body"/>
</svg>
